<svg width="800" height="1400" xmlns="http://www.w3.org/2000/svg" version="1.1"><g transform="translate(100,100)"><g class="arc"><path d="M-16.421323942843937,-93.56997445743042A95,95,0,0,1,-1.745121688784978e-14,-95L0,0Z" style="fill: rgb(191, 105, 105);"></path></g><g class="arc"><path d="M5.8170722959499274e-15,-95A95,95,0,1,1,-74.27399083446284,-59.23153117657967L0,0Z" style="fill: rgb(105, 191, 105);"></path></g><g class="arc"><path d="M-74.27399083446284,-59.23153117657967A95,95,0,0,1,-16.421323942843937,-93.56997445743042L0,0Z" style="fill: rgb(105, 105, 191);"></path></g><text transform="translate(-4.1208680296769815,-47.320909191202006)" dy=".35em" style="text-anchor: middle; font-size: 10px; font-family: Arial, Helvetica; fill: rgb(66, 66, 66);">6</text><text transform="translate(20.609477608084013,42.79602122536491)" dy=".35em" style="text-anchor: middle; font-size: 10px; font-family: Arial, Helvetica; fill: rgb(66, 66, 66);">186</text><text transform="translate(-24.244546821794486,-40.846688352984195)" dy=".35em" style="text-anchor: middle; font-size: 10px; font-family: Arial, Helvetica; fill: rgb(66, 66, 66);">25</text><text y="105" style="text-anchor: middle; font-size: 11px; font-family: Arial, Helvetica;">Maharashtra</text></g><g transform="translate(300,100)"><g class="arc"><path d="M-2.879175380603333,-90.70007153170188A90.74575817484865,90.74575817484865,0,0,1,-1.666972534275422e-14,-90.74575817484865L0,0Z" style="fill: rgb(191, 105, 105);"></path></g><g class="arc"><path d="M5.5565751142514074e-15,-90.74575817484865A90.74575817484865,90.74575817484865,0,1,1,-44.12029143957384,-79.29812425281683L0,0Z" style="fill: rgb(105, 191, 105);"></path></g><g class="arc"><path d="M-44.12029143957384,-79.29812425281683A90.74575817484865,90.74575817484865,0,0,1,-2.879175380603333,-90.70007153170188L0,0Z" style="fill: rgb(105, 105, 191);"></path></g><text transform="translate(-0.7198844586821728,-45.367167897590605)" dy=".35em" style="text-anchor: middle; font-size: 10px; font-family: Arial, Helvetica; fill: rgb(66, 66, 66);">1</text><text transform="translate(11.395307255417102,43.91861939128626)" dy=".35em" style="text-anchor: middle; font-size: 10px; font-family: Arial, Helvetica; fill: rgb(66, 66, 66);">182</text><text transform="translate(-12.090684128522817,-43.732293719702305)" dy=".35em" style="text-anchor: middle; font-size: 10px; font-family: Arial, Helvetica; fill: rgb(66, 66, 66);">15</text><text y="100.74575817484865" style="text-anchor: middle; font-size: 11px; font-family: Arial, Helvetica;">Kerala</text></g><g transform="translate(500,100)"><g class="arc"><path d="M-13.152377196002854,-57.62432959428542A59.10624659963424,59.10624659963424,0,0,1,-1.0857641356178429e-14,-59.10624659963424L0,0Z" style="fill: rgb(191, 105, 105);"></path></g><g class="arc"><path d="M3.61921378539281e-15,-59.10624659963424A59.10624659963424,59.10624659963424,0,1,1,-33.29573426642872,-48.83587274490073L0,0Z" style="fill: rgb(105, 191, 105);"></path></g><g class="arc"><path d="M-33.29573426642872,-48.83587274490073A59.10624659963424,59.10624659963424,0,0,1,-13.152377196002854,-57.62432959428542L0,0Z" style="fill: rgb(105, 105, 191);"></path></g><text transform="translate(-3.3088999674804898,-29.367299463508747)" dy=".35em" style="text-anchor: middle; font-size: 10px; font-family: Arial, Helvetica; fill: rgb(66, 66, 66);">3</text><text transform="translate(8.710936012624549,28.240160951350017)" dy=".35em" style="text-anchor: middle; font-size: 10px; font-family: Arial, Helvetica; fill: rgb(66, 66, 66);">76</text><text transform="translate(-11.818058301334784,-27.087277359683927)" dy=".35em" style="text-anchor: middle; font-size: 10px; font-family: Arial, Helvetica; fill: rgb(66, 66, 66);">5</text><text y="69.10624659963423" style="text-anchor: middle; font-size: 11px; font-family: Arial, Helvetica;">Karnataka</text></g><g transform="translate(700,100)"><g class="arc"><path d="M-1.032767696317251e-14,-56.221254816017385L0,0Z" style="fill: rgb(191, 105, 105);"></path></g><g class="arc"><path d="M3.4425589877241705e-15,-56.221254816017385A56.221254816017385,56.221254816017385,0,1,1,-44.366469664416414,-34.53180943136309L0,0Z" style="fill: rgb(105, 191, 105);"></path></g><g class="arc"><path d="M-44.366469664416414,-34.53180943136309A56.221254816017385,56.221254816017385,0,0,1,-1.032767696317251e-14,-56.221254816017385L0,0Z" style="fill: rgb(105, 105, 191);"></path></g><text transform="translate(-5.163838481586255e-15,-28.110627408008693)" dy=".35em" style="text-anchor: middle; font-size: 10px; font-family: Arial, Helvetica; fill: rgb(66, 66, 66);">0</text><text transform="translate(12.346091667956813,25.254334158680503)" dy=".35em" style="text-anchor: middle; font-size: 10px; font-family: Arial, Helvetica; fill: rgb(66, 66, 66);">65</text><text transform="translate(-12.346091667956816,-25.254334158680503)" dy=".35em" style="text-anchor: middle; font-size: 10px; font-family: Arial, Helvetica; fill: rgb(66, 66, 66);">11</text><text y="66.22125481601739" style="text-anchor: middle; font-size: 11px; font-family: Arial, Helvetica;">Uttar Pradesh</text></g><g transform="translate(100,300)"><g class="arc"><path d="M-9.77179624617888,-52.27449279717121A53.179983067676325,53.179983067676325,0,0,1,-4.906829793940669,-52.95312663527657L0,0Z" style="fill: rgb(191, 105, 105);"></path></g><g class="arc"><path d="M3.2563348021270125e-15,-53.179983067676325A53.179983067676325,53.179983067676325,0,1,1,-9.77179624617888,-52.27449279717121L0,0Z" style="fill: rgb(105, 191, 105);"></path></g><g class="arc"><path d="M-4.906829793940669,-52.95312663527657A53.179983067676325,53.179983067676325,0,0,1,-9.769004406381037e-15,-53.179983067676325L0,0Z" style="fill: rgb(105, 105, 191);"></path></g><text transform="translate(-3.6735763085164934,-26.33500497199671)" dy=".35em" style="text-anchor: middle; font-size: 10px; font-family: Arial, Helvetica; fill: rgb(66, 66, 66);">1</text><text transform="translate(2.453414896970331,26.476563317638284)" dy=".35em" style="text-anchor: middle; font-size: 10px; font-family: Arial, Helvetica; fill: rgb(66, 66, 66);">66</text><text transform="translate(-1.2280177743935703,-26.56161934286685)" dy=".35em" style="text-anchor: middle; font-size: 10px; font-family: Arial, Helvetica; fill: rgb(66, 66, 66);">1</text><text y="63.179983067676325" style="text-anchor: middle; font-size: 11px; font-family: Arial, Helvetica;">Telengana</text></g><g transform="translate(300,300)"><g class="arc"><path d="M-28.66306931485552,-42.897314712293124A51.59216173096193,51.59216173096193,0,0,1,-5.056916156289073,-51.34373137065512L0,0Z" style="fill: rgb(191, 105, 105);"></path></g><g class="arc"><path d="M3.1591087862457545e-15,-51.59216173096193A51.59216173096193,51.59216173096193,0,1,1,-28.66306931485552,-42.897314712293124L0,0Z" style="fill: rgb(105, 191, 105);"></path></g><g class="arc"><path d="M-5.056916156289073,-51.34373137065512A51.59216173096193,51.59216173096193,0,0,1,-9.477326358737264e-15,-51.59216173096193L0,0Z" style="fill: rgb(105, 105, 191);"></path></g><text transform="translate(-8.690437900865732,-24.288146843874884)" dy=".35em" style="text-anchor: middle; font-size: 10px; font-family: Arial, Helvetica; fill: rgb(66, 66, 66);">5</text><text transform="translate(7.488207008466153,24.685310283988564)" dy=".35em" style="text-anchor: middle; font-size: 10px; font-family: Arial, Helvetica; fill: rgb(66, 66, 66);">58</text><text transform="translate(-1.2657536948311596,-25.76500835634358)" dy=".35em" style="text-anchor: middle; font-size: 10px; font-family: Arial, Helvetica; fill: rgb(66, 66, 66);">1</text><text y="61.59216173096193" style="text-anchor: middle; font-size: 11px; font-family: Arial, Helvetica;">Gujarat</text></g><g transform="translate(500,300)"><g class="arc"><path d="M-9.022145899795796e-15,-49.114274723005124L0,0Z" style="fill: rgb(191, 105, 105);"></path></g><g class="arc"><path d="M3.007381966598599e-15,-49.114274723005124A49.114274723005124,49.114274723005124,0,1,1,-15.682263070574413,-46.54329819159916L0,0Z" style="fill: rgb(105, 191, 105);"></path></g><g class="arc"><path d="M-15.682263070574413,-46.54329819159916A49.114274723005124,49.114274723005124,0,0,1,-9.022145899795796e-15,-49.114274723005124L0,0Z" style="fill: rgb(105, 105, 191);"></path></g><text transform="translate(-4.511072949897898e-15,-24.557137361502562)" dy=".35em" style="text-anchor: middle; font-size: 10px; font-family: Arial, Helvetica; fill: rgb(66, 66, 66);">0</text><text transform="translate(3.972902711964375,24.23363446602616)" dy=".35em" style="text-anchor: middle; font-size: 10px; font-family: Arial, Helvetica; fill: rgb(66, 66, 66);">55</text><text transform="translate(-3.972902711964378,-24.23363446602616)" dy=".35em" style="text-anchor: middle; font-size: 10px; font-family: Arial, Helvetica; fill: rgb(66, 66, 66);">3</text><text y="59.114274723005124" style="text-anchor: middle; font-size: 11px; font-family: Arial, Helvetica;">Rajasthan</text></g><g transform="translate(700,300)"><g class="arc"><path d="M-10.647371282441,-47.51058413227014A48.68903490330927,48.68903490330927,0,0,1,-8.944030612186719e-15,-48.68903490330927L0,0Z" style="fill: rgb(191, 105, 105);"></path></g><g class="arc"><path d="M2.9813435373955728e-15,-48.68903490330927A48.68903490330927,48.68903490330927,0,1,1,-37.58387675891036,-30.952775765457716L0,0Z" style="fill: rgb(105, 191, 105);"></path></g><g class="arc"><path d="M-37.58387675891036,-30.952775765457716A48.68903490330927,48.68903490330927,0,0,1,-10.647371282441,-47.51058413227014L0,0Z" style="fill: rgb(105, 105, 191);"></path></g><text transform="translate(-2.678097055815848,-24.196762719701734)" dy=".35em" style="text-anchor: middle; font-size: 10px; font-family: Arial, Helvetica; fill: rgb(66, 66, 66);">2</text><text transform="translate(10.38966638189716,22.01613868113101)" dy=".35em" style="text-anchor: middle; font-size: 10px; font-family: Arial, Helvetica; fill: rgb(66, 66, 66);">49</text><text transform="translate(-12.748564393536734,-20.73956691586795)" dy=".35em" style="text-anchor: middle; font-size: 10px; font-family: Arial, Helvetica; fill: rgb(66, 66, 66);">6</text><text y="58.68903490330927" style="text-anchor: middle; font-size: 11px; font-family: Arial, Helvetica;">Delhi</text></g><g transform="translate(100,500)"><g class="arc"><path d="M-5.501692727141113,-47.069989501786964A47.39042661300078,47.39042661300078,0,0,1,-8.705480139275841e-15,-47.39042661300078L0,0Z" style="fill: rgb(191, 105, 105);"></path></g><g class="arc"><path d="M2.9018267130919473e-15,-47.39042661300078A47.39042661300078,47.39042661300078,0,1,1,-26.04146489844958,-39.5941238128214L0,0Z" style="fill: rgb(105, 191, 105);"></path></g><g class="arc"><path d="M-26.04146489844958,-39.5941238128214A47.39042661300078,47.39042661300078,0,0,1,-5.501692727141113,-47.069989501786964L0,0Z" style="fill: rgb(105, 105, 191);"></path></g><text transform="translate(-1.377754123703684,-23.65512475585725)" dy=".35em" style="text-anchor: middle; font-size: 10px; font-family: Arial, Helvetica; fill: rgb(66, 66, 66);">1</text><text transform="translate(6.79586377608315,22.69976583970579)" dy=".35em" style="text-anchor: middle; font-size: 10px; font-family: Arial, Helvetica; fill: rgb(66, 66, 66);">49</text><text transform="translate(-8.104240251221551,-22.26621709206648)" dy=".35em" style="text-anchor: middle; font-size: 10px; font-family: Arial, Helvetica; fill: rgb(66, 66, 66);">4</text><text y="57.39042661300078" style="text-anchor: middle; font-size: 11px; font-family: Arial, Helvetica;">Tamil Nadu</text></g><g transform="translate(300,500)"><g class="arc"><path d="M3.2125379860762084e-14,-45.60145927004534L0,0Z" style="fill: rgb(191, 105, 105);"></path></g><g class="arc"><path d="M2.792284056575471e-15,-45.60145927004534A45.60145927004534,45.60145927004534,0,1,1,-38.502585505342026,24.43448376703363L0,0Z" style="fill: rgb(105, 191, 105);"></path></g><g class="arc"><path d="M-38.502585505342026,24.43448376703363A45.60145927004534,45.60145927004534,0,0,1,3.2125379860762084e-14,-45.60145927004534L0,0Z" style="fill: rgb(105, 105, 191);"></path></g><text transform="translate(1.6062689930381042e-14,-22.80072963502267)" dy=".35em" style="text-anchor: middle; font-size: 10px; font-family: Arial, Helvetica; fill: rgb(66, 66, 66);">0</text><text transform="translate(19.980431689044448,10.984335273872038)" dy=".35em" style="text-anchor: middle; font-size: 10px; font-family: Arial, Helvetica; fill: rgb(66, 66, 66);">33</text><text transform="translate(-19.980431689044444,-10.984335273872043)" dy=".35em" style="text-anchor: middle; font-size: 10px; font-family: Arial, Helvetica; fill: rgb(66, 66, 66);">17</text><text y="55.60145927004534" style="text-anchor: middle; font-size: 11px; font-family: Arial, Helvetica;">Haryana</text></g><g transform="translate(500,500)"><g class="arc"><path d="M-12.603933354921743,-38.79091819009669A40.78718512040373,40.78718512040373,0,0,1,-6.380521484807228,-40.285027189118246L0,0Z" style="fill: rgb(191, 105, 105);"></path></g><g class="arc"><path d="M2.4974947851966486e-15,-40.78718512040373A40.78718512040373,40.78718512040373,0,1,1,-12.603933354921743,-38.79091819009669L0,0Z" style="fill: rgb(105, 191, 105);"></path></g><g class="arc"><path d="M-6.380521484807228,-40.285027189118246A40.78718512040373,40.78718512040373,0,0,1,-7.492484355589946e-15,-40.78718512040373L0,0Z" style="fill: rgb(105, 105, 191);"></path></g><text transform="translate(-4.760789635545404,-19.830115974386135)" dy=".35em" style="text-anchor: middle; font-size: 10px; font-family: Arial, Helvetica; fill: rgb(66, 66, 66);">1</text><text transform="translate(3.190260742403612,20.142513594559126)" dy=".35em" style="text-anchor: middle; font-size: 10px; font-family: Arial, Helvetica; fill: rgb(66, 66, 66);">38</text><text transform="translate(-1.6000628309155571,-20.330725920356198)" dy=".35em" style="text-anchor: middle; font-size: 10px; font-family: Arial, Helvetica; fill: rgb(66, 66, 66);">1</text><text y="50.78718512040373" style="text-anchor: middle; font-size: 11px; font-family: Arial, Helvetica;">Punjab</text></g><g transform="translate(700,500)"><g class="arc"><path d="M-19.79591643932507,-31.971502809008367A37.603926650539705,37.603926650539705,0,0,1,-6.90970339004637,-36.963648339967094L0,0Z" style="fill: rgb(191, 105, 105);"></path></g><g class="arc"><path d="M2.302576420397765e-15,-37.603926650539705A37.603926650539705,37.603926650539705,0,1,1,-19.79591643932507,-31.971502809008367L0,0Z" style="fill: rgb(105, 191, 105);"></path></g><g class="arc"><path d="M-6.90970339004637,-36.963648339967094A37.603926650539705,37.603926650539705,0,0,1,-6.907729261193295e-15,-37.603926650539705L0,0Z" style="fill: rgb(105, 105, 191);"></path></g><text transform="translate(-6.792052559210241,-17.532308659093307)" dy=".35em" style="text-anchor: middle; font-size: 10px; font-family: Arial, Helvetica; fill: rgb(66, 66, 66);">2</text><text transform="translate(5.145401502818992,18.08421046823943)" dy=".35em" style="text-anchor: middle; font-size: 10px; font-family: Arial, Helvetica; fill: rgb(66, 66, 66);">31</text><text transform="translate(-1.7348263107118347,-18.721757464417024)" dy=".35em" style="text-anchor: middle; font-size: 10px; font-family: Arial, Helvetica; fill: rgb(66, 66, 66);">1</text><text y="47.603926650539705" style="text-anchor: middle; font-size: 11px; font-family: Arial, Helvetica;">Jammu and Kashmir</text></g><g transform="translate(100,700)"><g class="arc"><path d="M-13.96073836345425,-33.70420389779356A36.481167416036264,36.481167416036264,0,0,1,-6.701481735781129e-15,-36.481167416036264L0,0Z" style="fill: rgb(191, 105, 105);"></path></g><g class="arc"><path d="M2.2338272452603765e-15,-36.481167416036264A36.481167416036264,36.481167416036264,0,1,1,-13.96073836345425,-33.70420389779356L0,0Z" style="fill: rgb(105, 191, 105);"></path></g><g class="arc"><path d="M-6.701481735781129e-15,-36.481167416036264L0,0Z" style="fill: rgb(105, 105, 191);"></path></g><text transform="translate(-3.5585613493594077,-17.890096006787157)" dy=".35em" style="text-anchor: middle; font-size: 10px; font-family: Arial, Helvetica; fill: rgb(66, 66, 66);">2</text><text transform="translate(3.558561349359405,17.89009600678716)" dy=".35em" style="text-anchor: middle; font-size: 10px; font-family: Arial, Helvetica; fill: rgb(66, 66, 66);">30</text><text transform="translate(-3.3507408678905646e-15,-18.240583708018132)" dy=".35em" style="text-anchor: middle; font-size: 10px; font-family: Arial, Helvetica; fill: rgb(66, 66, 66);">0</text><text y="46.481167416036264" style="text-anchor: middle; font-size: 11px; font-family: Arial, Helvetica;">Madhya Pradesh</text></g><g transform="translate(300,700)"><g class="arc"><path d="M-5.297986495771771e-15,-28.840895184148525L0,0Z" style="fill: rgb(191, 105, 105);"></path></g><g class="arc"><path d="M1.7659954985905903e-15,-28.840895184148525A28.840895184148525,28.840895184148525,0,1,1,-8.912326744888476,-27.42932130066997L0,0Z" style="fill: rgb(105, 191, 105);"></path></g><g class="arc"><path d="M-8.912326744888476,-27.42932130066997A28.840895184148525,28.840895184148525,0,0,1,-5.297986495771771e-15,-28.840895184148525L0,0Z" style="fill: rgb(105, 105, 191);"></path></g><text transform="translate(-2.6489932478858854e-15,-14.420447592074263)" dy=".35em" style="text-anchor: middle; font-size: 10px; font-family: Arial, Helvetica; fill: rgb(66, 66, 66);">0</text><text transform="translate(2.2558550047068233,14.24290795285498)" dy=".35em" style="text-anchor: middle; font-size: 10px; font-family: Arial, Helvetica; fill: rgb(66, 66, 66);">19</text><text transform="translate(-2.255855004706825,-14.242907952854978)" dy=".35em" style="text-anchor: middle; font-size: 10px; font-family: Arial, Helvetica; fill: rgb(66, 66, 66);">1</text><text y="38.84089518414852" style="text-anchor: middle; font-size: 11px; font-family: Arial, Helvetica;">Andhra Pradesh</text></g><g transform="translate(500,700)"><g class="arc"><path d="M-9.127505798391056,-26.58751607751704A28.110627408008693,28.110627408008693,0,0,1,-5.163838481586255e-15,-28.110627408008693L0,0Z" style="fill: rgb(191, 105, 105);"></path></g><g class="arc"><path d="M1.7212794938620852e-15,-28.110627408008693A28.110627408008693,28.110627408008693,0,1,1,-9.127505798391056,-26.58751607751704L0,0Z" style="fill: rgb(105, 191, 105);"></path></g><g class="arc"><path d="M-5.163838481586255e-15,-28.110627408008693L0,0Z" style="fill: rgb(105, 105, 191);"></path></g><text transform="translate(-2.313428600377789,-13.863617544815872)" dy=".35em" style="text-anchor: middle; font-size: 10px; font-family: Arial, Helvetica; fill: rgb(66, 66, 66);">1</text><text transform="translate(2.313428600377781,13.863617544815872)" dy=".35em" style="text-anchor: middle; font-size: 10px; font-family: Arial, Helvetica; fill: rgb(66, 66, 66);">18</text><text transform="translate(-2.5819192407931276e-15,-14.055313704004346)" dy=".35em" style="text-anchor: middle; font-size: 10px; font-family: Arial, Helvetica; fill: rgb(66, 66, 66);">0</text><text y="38.110627408008696" style="text-anchor: middle; font-size: 11px; font-family: Arial, Helvetica;">West Bengal</text></g><g transform="translate(700,700)"><g class="arc"><path d="M-4.738663179368632e-15,-25.796080865480963L0,0Z" style="fill: rgb(191, 105, 105);"></path></g><g class="arc"><path d="M1.5795543931228773e-15,-25.796080865480963A25.796080865480963,25.796080865480963,0,1,1,-23.832471130623897,-9.871732767169679L0,0Z" style="fill: rgb(105, 191, 105);"></path></g><g class="arc"><path d="M-23.832471130623897,-9.871732767169679A25.796080865480963,25.796080865480963,0,0,1,-4.738663179368632e-15,-25.796080865480963L0,0Z" style="fill: rgb(105, 105, 191);"></path></g><text transform="translate(-2.369331589684316e-15,-12.898040432740482)" dy=".35em" style="text-anchor: middle; font-size: 10px; font-family: Arial, Helvetica; fill: rgb(66, 66, 66);">0</text><text transform="translate(7.165767328713878,10.724328678073283)" dy=".35em" style="text-anchor: middle; font-size: 10px; font-family: Arial, Helvetica; fill: rgb(66, 66, 66);">13</text><text transform="translate(-7.16576732871388,-10.724328678073281)" dy=".35em" style="text-anchor: middle; font-size: 10px; font-family: Arial, Helvetica; fill: rgb(66, 66, 66);">3</text><text y="35.79608086548096" style="text-anchor: middle; font-size: 11px; font-family: Arial, Helvetica;">Ladakh</text></g><g transform="translate(100,900)"><g class="arc"><path d="M-11.170030673792104,-19.34706064911072A22.340061347584186,22.340061347584186,0,0,1,-4.1038026933111715e-15,-22.340061347584186L0,0Z" style="fill: rgb(191, 105, 105);"></path></g><g class="arc"><path d="M1.367934231103724e-15,-22.340061347584186A22.340061347584186,22.340061347584186,0,1,1,-11.170030673792104,-19.34706064911072L0,0Z" style="fill: rgb(105, 191, 105);"></path></g><g class="arc"><path d="M-4.1038026933111715e-15,-22.340061347584186L0,0Z" style="fill: rgb(105, 105, 191);"></path></g><text transform="translate(-2.891016672756735,-10.789421108256866)" dy=".35em" style="text-anchor: middle; font-size: 10px; font-family: Arial, Helvetica; fill: rgb(66, 66, 66);">1</text><text transform="translate(2.8910166727567383,10.789421108256864)" dy=".35em" style="text-anchor: middle; font-size: 10px; font-family: Arial, Helvetica; fill: rgb(66, 66, 66);">11</text><text transform="translate(-2.0519013466555858e-15,-11.170030673792093)" dy=".35em" style="text-anchor: middle; font-size: 10px; font-family: Arial, Helvetica; fill: rgb(66, 66, 66);">0</text><text y="32.34006134758418" style="text-anchor: middle; font-size: 11px; font-family: Arial, Helvetica;">Bihar</text></g><g transform="translate(300,900)"><g class="arc"><path d="M-3.553997384526474e-15,-19.347060649110723L0,0Z" style="fill: rgb(191, 105, 105);"></path></g><g class="arc"><path d="M1.184665794842158e-15,-19.347060649110723A19.347060649110723,19.347060649110723,0,1,1,-1.184665794842158e-15,19.347060649110723A19.347060649110723,19.347060649110723,0,1,1,1.184665794842158e-15,-19.347060649110723Z" style="fill: rgb(105, 191, 105);"></path></g><g class="arc"><path d="M-3.553997384526474e-15,-19.347060649110723L0,0Z" style="fill: rgb(105, 105, 191);"></path></g><text transform="translate(-1.776998692263237e-15,-9.673530324555362)" dy=".35em" style="text-anchor: middle; font-size: 10px; font-family: Arial, Helvetica; fill: rgb(66, 66, 66);">0</text><text transform="translate(5.92332897421079e-16,9.673530324555362)" dy=".35em" style="text-anchor: middle; font-size: 10px; font-family: Arial, Helvetica; fill: rgb(66, 66, 66);">9</text><text transform="translate(-1.776998692263237e-15,-9.673530324555362)" dy=".35em" style="text-anchor: middle; font-size: 10px; font-family: Arial, Helvetica; fill: rgb(66, 66, 66);">0</text><text y="29.347060649110723" style="text-anchor: middle; font-size: 11px; font-family: Arial, Helvetica;">Andaman and Nicobar Islands</text></g><g transform="translate(500,900)"><g class="arc"><path d="M-3.553997384526474e-15,-19.347060649110723L0,0Z" style="fill: rgb(191, 105, 105);"></path></g><g class="arc"><path d="M1.184665794842158e-15,-19.347060649110723A19.347060649110723,19.347060649110723,0,1,1,-19.053135325241644,-3.3595818249296494L0,0Z" style="fill: rgb(105, 191, 105);"></path></g><g class="arc"><path d="M-19.053135325241644,-3.3595818249296494A19.347060649110723,19.347060649110723,0,0,1,-3.553997384526474e-15,-19.347060649110723L0,0Z" style="fill: rgb(105, 105, 191);"></path></g><text transform="translate(-1.776998692263237e-15,-9.673530324555362)" dy=".35em" style="text-anchor: middle; font-size: 10px; font-family: Arial, Helvetica; fill: rgb(66, 66, 66);">0</text><text transform="translate(6.218025434551195,7.4103541504685575)" dy=".35em" style="text-anchor: middle; font-size: 10px; font-family: Arial, Helvetica; fill: rgb(66, 66, 66);">7</text><text transform="translate(-6.218025434551195,-7.4103541504685575)" dy=".35em" style="text-anchor: middle; font-size: 10px; font-family: Arial, Helvetica; fill: rgb(66, 66, 66);">2</text><text y="29.347060649110723" style="text-anchor: middle; font-size: 11px; font-family: Arial, Helvetica;">Uttarakhand</text></g><g transform="translate(700,900)"><g class="arc"><path d="M-3.3507408678905646e-15,-18.240583708018132L0,0Z" style="fill: rgb(191, 105, 105);"></path></g><g class="arc"><path d="M1.1169136226301883e-15,-18.240583708018132A18.240583708018132,18.240583708018132,0,1,1,-1.1169136226301883e-15,18.240583708018132A18.240583708018132,18.240583708018132,0,1,1,1.1169136226301883e-15,-18.240583708018132Z" style="fill: rgb(105, 191, 105);"></path></g><g class="arc"><path d="M-3.3507408678905646e-15,-18.240583708018132L0,0Z" style="fill: rgb(105, 105, 191);"></path></g><text transform="translate(-1.6753704339452823e-15,-9.120291854009066)" dy=".35em" style="text-anchor: middle; font-size: 10px; font-family: Arial, Helvetica; fill: rgb(66, 66, 66);">0</text><text transform="translate(5.584568113150941e-16,9.120291854009066)" dy=".35em" style="text-anchor: middle; font-size: 10px; font-family: Arial, Helvetica; fill: rgb(66, 66, 66);">8</text><text transform="translate(-1.6753704339452823e-15,-9.120291854009066)" dy=".35em" style="text-anchor: middle; font-size: 10px; font-family: Arial, Helvetica; fill: rgb(66, 66, 66);">0</text><text y="28.240583708018132" style="text-anchor: middle; font-size: 11px; font-family: Arial, Helvetica;">Chandigarh</text></g><g transform="translate(100,1100)"><g class="arc"><path d="M-3.1343310798770146e-15,-17.062503692543615L0,0Z" style="fill: rgb(191, 105, 105);"></path></g><g class="arc"><path d="M1.0447770266256717e-15,-17.062503692543615A17.062503692543615,17.062503692543615,0,1,1,-1.0447770266256717e-15,17.062503692543615A17.062503692543615,17.062503692543615,0,1,1,1.0447770266256717e-15,-17.062503692543615Z" style="fill: rgb(105, 191, 105);"></path></g><g class="arc"><path d="M-3.1343310798770146e-15,-17.062503692543615L0,0Z" style="fill: rgb(105, 105, 191);"></path></g><text transform="translate(-1.5671655399385073e-15,-8.531251846271807)" dy=".35em" style="text-anchor: middle; font-size: 10px; font-family: Arial, Helvetica; fill: rgb(66, 66, 66);">0</text><text transform="translate(5.223885133128358e-16,8.531251846271807)" dy=".35em" style="text-anchor: middle; font-size: 10px; font-family: Arial, Helvetica; fill: rgb(66, 66, 66);">7</text><text transform="translate(-1.5671655399385073e-15,-8.531251846271807)" dy=".35em" style="text-anchor: middle; font-size: 10px; font-family: Arial, Helvetica; fill: rgb(66, 66, 66);">0</text><text y="27.062503692543615" style="text-anchor: middle; font-size: 11px; font-family: Arial, Helvetica;">Chhattisgarh</text></g><g transform="translate(300,1100)"><g class="arc"><path d="M-2.6489932478858854e-15,-14.420447592074263L0,0Z" style="fill: rgb(191, 105, 105);"></path></g><g class="arc"><path d="M8.829977492952951e-16,-14.420447592074263A14.420447592074263,14.420447592074263,0,1,1,-8.829977492952951e-16,14.420447592074263A14.420447592074263,14.420447592074263,0,1,1,8.829977492952951e-16,-14.420447592074263Z" style="fill: rgb(105, 191, 105);"></path></g><g class="arc"><path d="M-2.6489932478858854e-15,-14.420447592074263L0,0Z" style="fill: rgb(105, 105, 191);"></path></g><text transform="translate(-1.3244966239429427e-15,-7.210223796037131)" dy=".35em" style="text-anchor: middle; font-size: 10px; font-family: Arial, Helvetica; fill: rgb(66, 66, 66);">0</text><text transform="translate(4.4149887464764757e-16,7.210223796037131)" dy=".35em" style="text-anchor: middle; font-size: 10px; font-family: Arial, Helvetica; fill: rgb(66, 66, 66);">5</text><text transform="translate(-1.3244966239429427e-15,-7.210223796037131)" dy=".35em" style="text-anchor: middle; font-size: 10px; font-family: Arial, Helvetica; fill: rgb(66, 66, 66);">0</text><text y="24.42044759207426" style="text-anchor: middle; font-size: 11px; font-family: Arial, Helvetica;">Goa</text></g><g transform="translate(500,1100)"><g class="arc"><path d="M-12.898040432740482,1.5795543931228773e-15A12.898040432740482,12.898040432740482,0,0,1,-2.369331589684316e-15,-12.898040432740482L0,0Z" style="fill: rgb(191, 105, 105);"></path></g><g class="arc"><path d="M7.897771965614386e-16,-12.898040432740482A12.898040432740482,12.898040432740482,0,1,1,-12.898040432740482,1.5795543931228773e-15L0,0Z" style="fill: rgb(105, 191, 105);"></path></g><g class="arc"><path d="M-2.369331589684316e-15,-12.898040432740482L0,0Z" style="fill: rgb(105, 105, 191);"></path></g><text transform="translate(-4.560145927004534,-4.560145927004533)" dy=".35em" style="text-anchor: middle; font-size: 10px; font-family: Arial, Helvetica; fill: rgb(66, 66, 66);">1</text><text transform="translate(4.560145927004534,4.560145927004533)" dy=".35em" style="text-anchor: middle; font-size: 10px; font-family: Arial, Helvetica; fill: rgb(66, 66, 66);">3</text><text transform="translate(-1.184665794842158e-15,-6.449020216370241)" dy=".35em" style="text-anchor: middle; font-size: 10px; font-family: Arial, Helvetica; fill: rgb(66, 66, 66);">0</text><text y="22.89804043274048" style="text-anchor: middle; font-size: 11px; font-family: Arial, Helvetica;">Himachal Pradesh</text></g><g transform="translate(700,1100)"><g class="arc"><path d="M-2.0519013466555858e-15,-11.170030673792093L0,0Z" style="fill: rgb(191, 105, 105);"></path></g><g class="arc"><path d="M6.83967115551862e-16,-11.170030673792093A11.170030673792093,11.170030673792093,0,1,1,-6.83967115551862e-16,11.170030673792093A11.170030673792093,11.170030673792093,0,1,1,6.83967115551862e-16,-11.170030673792093Z" style="fill: rgb(105, 191, 105);"></path></g><g class="arc"><path d="M-2.0519013466555858e-15,-11.170030673792093L0,0Z" style="fill: rgb(105, 105, 191);"></path></g><text transform="translate(-1.0259506733277929e-15,-5.5850153368960465)" dy=".35em" style="text-anchor: middle; font-size: 10px; font-family: Arial, Helvetica; fill: rgb(66, 66, 66);">0</text><text transform="translate(3.41983557775931e-16,5.5850153368960465)" dy=".35em" style="text-anchor: middle; font-size: 10px; font-family: Arial, Helvetica; fill: rgb(66, 66, 66);">3</text><text transform="translate(-1.0259506733277929e-15,-5.5850153368960465)" dy=".35em" style="text-anchor: middle; font-size: 10px; font-family: Arial, Helvetica; fill: rgb(66, 66, 66);">0</text><text y="21.17003067379209" style="text-anchor: middle; font-size: 11px; font-family: Arial, Helvetica;">Odisha</text></g><g transform="translate(100,1300)"><g class="arc"><path d="M-1.184665794842158e-15,-6.449020216370241L0,0Z" style="fill: rgb(191, 105, 105);"></path></g><g class="arc"><path d="M3.948885982807193e-16,-6.449020216370241A6.449020216370241,6.449020216370241,0,1,1,-3.948885982807193e-16,6.449020216370241A6.449020216370241,6.449020216370241,0,1,1,3.948885982807193e-16,-6.449020216370241Z" style="fill: rgb(105, 191, 105);"></path></g><g class="arc"><path d="M-1.184665794842158e-15,-6.449020216370241L0,0Z" style="fill: rgb(105, 105, 191);"></path></g><text transform="translate(-5.92332897421079e-16,-3.2245101081851204)" dy=".35em" style="text-anchor: middle; font-size: 10px; font-family: Arial, Helvetica; fill: rgb(66, 66, 66);">0</text><text transform="translate(1.9744429914035966e-16,3.2245101081851204)" dy=".35em" style="text-anchor: middle; font-size: 10px; font-family: Arial, Helvetica; fill: rgb(66, 66, 66);">1</text><text transform="translate(-5.92332897421079e-16,-3.2245101081851204)" dy=".35em" style="text-anchor: middle; font-size: 10px; font-family: Arial, Helvetica; fill: rgb(66, 66, 66);">0</text><text y="16.44902021637024" style="text-anchor: middle; font-size: 11px; font-family: Arial, Helvetica;">Manipur</text></g><g transform="translate(300,1300)"><g class="arc"><path d="M-1.184665794842158e-15,-6.449020216370241L0,0Z" style="fill: rgb(191, 105, 105);"></path></g><g class="arc"><path d="M3.948885982807193e-16,-6.449020216370241A6.449020216370241,6.449020216370241,0,1,1,-3.948885982807193e-16,6.449020216370241A6.449020216370241,6.449020216370241,0,1,1,3.948885982807193e-16,-6.449020216370241Z" style="fill: rgb(105, 191, 105);"></path></g><g class="arc"><path d="M-1.184665794842158e-15,-6.449020216370241L0,0Z" style="fill: rgb(105, 105, 191);"></path></g><text transform="translate(-5.92332897421079e-16,-3.2245101081851204)" dy=".35em" style="text-anchor: middle; font-size: 10px; font-family: Arial, Helvetica; fill: rgb(66, 66, 66);">0</text><text transform="translate(1.9744429914035966e-16,3.2245101081851204)" dy=".35em" style="text-anchor: middle; font-size: 10px; font-family: Arial, Helvetica; fill: rgb(66, 66, 66);">1</text><text transform="translate(-5.92332897421079e-16,-3.2245101081851204)" dy=".35em" style="text-anchor: middle; font-size: 10px; font-family: Arial, Helvetica; fill: rgb(66, 66, 66);">0</text><text y="16.44902021637024" style="text-anchor: middle; font-size: 11px; font-family: Arial, Helvetica;">Mizoram</text></g><g transform="translate(500,1300)"><g class="arc"><path d="M-1.184665794842158e-15,-6.449020216370241L0,0Z" style="fill: rgb(191, 105, 105);"></path></g><g class="arc"><path d="M3.948885982807193e-16,-6.449020216370241A6.449020216370241,6.449020216370241,0,1,1,-3.948885982807193e-16,6.449020216370241A6.449020216370241,6.449020216370241,0,1,1,3.948885982807193e-16,-6.449020216370241Z" style="fill: rgb(105, 191, 105);"></path></g><g class="arc"><path d="M-1.184665794842158e-15,-6.449020216370241L0,0Z" style="fill: rgb(105, 105, 191);"></path></g><text transform="translate(-5.92332897421079e-16,-3.2245101081851204)" dy=".35em" style="text-anchor: middle; font-size: 10px; font-family: Arial, Helvetica; fill: rgb(66, 66, 66);">0</text><text transform="translate(1.9744429914035966e-16,3.2245101081851204)" dy=".35em" style="text-anchor: middle; font-size: 10px; font-family: Arial, Helvetica; fill: rgb(66, 66, 66);">1</text><text transform="translate(-5.92332897421079e-16,-3.2245101081851204)" dy=".35em" style="text-anchor: middle; font-size: 10px; font-family: Arial, Helvetica; fill: rgb(66, 66, 66);">0</text><text y="16.44902021637024" style="text-anchor: middle; font-size: 11px; font-family: Arial, Helvetica;">Puducherry</text></g><g transform="translate(700,1300)"><g class="arc"><path d="M0,0Z" style="fill: rgb(191, 105, 105);"></path></g><g class="arc"><path d="M0,0Z" style="fill: rgb(105, 191, 105);"></path></g><g class="arc"><path d="M0,0Z" style="fill: rgb(105, 105, 191);"></path></g><text transform="translate(0,0)" dy=".35em" style="text-anchor: middle; font-size: 10px; font-family: Arial, Helvetica; fill: rgb(66, 66, 66);">0</text><text transform="translate(0,0)" dy=".35em" style="text-anchor: middle; font-size: 10px; font-family: Arial, Helvetica; fill: rgb(66, 66, 66);">0</text><text transform="translate(0,0)" dy=".35em" style="text-anchor: middle; font-size: 10px; font-family: Arial, Helvetica; fill: rgb(66, 66, 66);">0</text><text y="10" style="text-anchor: middle; font-size: 11px; font-family: Arial, Helvetica;"></text></g></svg>